<?xml version="1.0" standalone="no"?>
<!DOCTYPE svg PUBLIC "-//W3C//DTD SVG 20010904//EN"
 "http://www.w3.org/TR/2001/REC-SVG-20010904/DTD/svg10.dtd">
<svg version="1.0" xmlns="http://www.w3.org/2000/svg"
 width="768.000000pt" height="1280.000000pt" viewBox="0 0 768.000000 1280.000000"
 preserveAspectRatio="xMidYMid meet">
<metadata>
Created by potrace 1.15, written by Peter Selinger 2001-2017
</metadata>
<g transform="translate(0.000000,1280.000000) scale(0.100000,-0.100000)"
fill="#000000" stroke="none">
<path d="M7606 12784 c-95 -35 -213 -128 -327 -260 -73 -84 -504 -762 -2879
-4529 -1536 -2436 -2813 -4461 -2837 -4498 l-44 -68 -57 32 c-211 118 -417
260 -841 578 -135 101 -276 204 -314 229 l-69 46 -29 -34 c-91 -108 -178 -285
-153 -310 5 -5 117 -61 249 -123 441 -210 691 -341 933 -488 189 -116 479
-323 475 -338 -1 -4 -61 -110 -133 -234 -94 -163 -143 -239 -176 -269 -53 -48
-81 -98 -90 -159 -5 -31 -103 -209 -341 -624 -184 -319 -337 -582 -339 -585
-3 -2 -23 5 -44 18 l-39 22 -31 -52 c-16 -29 -30 -56 -30 -60 0 -18 -31 -4
-193 87 -93 52 -172 95 -176 95 -11 0 -69 -166 -93 -265 -31 -126 -31 -355 0
-466 26 -95 71 -186 130 -263 43 -56 45 -60 46 -133 1 -71 3 -76 34 -104 48
-43 128 -34 175 19 17 18 27 19 140 15 105 -5 133 -3 201 16 183 50 371 185
532 380 l53 64 -164 124 c-91 68 -165 127 -165 131 0 4 13 31 29 60 l29 52
-26 15 c-15 8 -33 18 -40 23 -10 7 21 64 121 233 74 123 227 380 341 571 l206
348 50 21 c84 36 132 105 146 209 6 43 29 90 129 259 68 113 127 205 132 204
6 -1 347 -219 759 -483 l749 -481 60 63 c33 35 76 95 97 133 34 66 78 184 78
210 0 8 -27 14 -77 18 -155 11 -348 79 -658 232 -177 87 -523 274 -678 367
l-67 40 29 52 c1155 2039 2136 3793 3218 5751 946 1711 1953 3552 1984 3626
39 90 59 218 59 370 0 144 2 141 -74 113z m44 -128 c0 -129 -22 -259 -59 -345
-80 -189 -2963 -5407 -4244 -7681 -347 -616 -979 -1733 -983 -1739 -8 -9 -184
145 -184 161 0 26 276 490 1877 3151 494 821 693 1158 948 1602 670 1168 953
1780 891 1928 -33 79 -106 56 -230 -73 -253 -262 -679 -942 -1546 -2465 -1258
-2209 -1493 -2613 -1899 -3265 -138 -222 -383 -604 -397 -619 -8 -9 -251 83
-270 102 -3 3 4709 7482 5587 8868 141 223 320 407 452 464 57 25 57 24 57
-89z m-7299 -8456 l98 -70 -72 -120 c-40 -66 -76 -120 -81 -120 -4 0 -53 21
-108 47 l-100 47 5 33 c3 18 17 55 31 83 26 51 112 170 123 170 3 0 50 -32
104 -70z m332 -247 c339 -256 601 -432 797 -536 183 -97 372 -163 498 -174 59
-5 72 -9 67 -21 -6 -17 -163 -280 -178 -300 -8 -10 -14 -6 -27 16 -68 111
-428 366 -835 592 -130 72 -561 290 -597 302 -8 3 2 29 32 79 65 111 90 149
95 149 3 0 70 -48 148 -107z m1407 -794 c0 -36 56 -121 122 -185 80 -78 166
-136 398 -265 416 -231 610 -329 812 -409 l108 -43 -19 -31 c-10 -17 -43 -71
-73 -120 -29 -49 -56 -89 -60 -90 -3 -1 -291 182 -640 406 -349 224 -652 415
-674 424 -22 10 -68 17 -106 18 -38 1 -67 4 -65 7 12 29 184 309 190 309 4 0
7 -10 7 -21z m-239 -385 l98 -217 -19 -36 c-44 -86 -38 -90 -130 85 -45 87
-95 182 -111 209 l-28 51 40 68 c23 37 43 65 46 62 3 -3 50 -103 104 -222z
m-11 93 c11 -39 12 -39 57 -35 l46 3 34 -73 c18 -40 33 -80 33 -89 0 -17 -40
-93 -49 -93 -3 0 -21 35 -40 78 -19 42 -57 123 -83 180 -26 57 -48 107 -48
110 1 17 39 -46 50 -81z m26 -451 c-3 -11 -14 -31 -23 -43 -17 -21 -19 -21
-52 -5 -28 14 -51 47 -127 179 l-93 163 41 70 41 71 109 -207 c78 -146 108
-212 104 -228z m177 404 c26 -7 47 -16 47 -21 0 -5 -14 -32 -32 -60 l-31 -52
-24 54 c-33 73 -39 100 -22 95 8 -2 35 -10 62 -16z m-393 -276 c45 -80 80
-147 78 -150 -12 -11 -238 147 -238 167 0 9 69 129 75 129 2 0 40 -66 85 -146z
m-220 -431 c52 -96 96 -182 98 -189 5 -19 -59 -128 -68 -117 -4 4 -50 88 -103
186 l-96 177 32 60 c18 33 34 60 37 60 3 0 48 -80 100 -177z m87 63 c62 -37
115 -71 118 -76 6 -9 -69 -145 -85 -155 -5 -3 -49 70 -99 161 -65 119 -84 162
-68 152 12 -8 72 -45 134 -82z m2256 27 l59 -6 -6 -31 c-10 -54 -94 -209 -144
-265 l-48 -54 -75 47 c-41 27 -76 50 -78 52 -1 1 34 64 79 139 l83 137 36 -6
c20 -4 62 -10 94 -13z m-2420 -233 c53 -99 97 -185 97 -190 0 -13 -73 -140
-80 -140 -3 0 -50 82 -104 183 l-99 182 39 72 c21 40 41 73 44 73 3 0 49 -81
103 -180z m-94 -165 l102 -185 -38 -65 c-21 -36 -40 -65 -43 -65 -6 0 -200
353 -200 364 0 7 73 135 77 136 0 0 47 -83 102 -185z m-84 -165 l94 -173 -42
-73 c-23 -40 -44 -73 -47 -73 -3 0 -49 81 -102 181 l-98 181 41 75 c26 45 45
70 51 64 5 -5 51 -87 103 -182z m-102 -160 l98 -180 -37 -63 c-21 -34 -43 -70
-49 -80 -10 -15 -26 8 -108 161 -54 98 -97 182 -97 187 0 11 84 155 90 155 3
0 49 -81 103 -180z m-104 -181 c50 -92 91 -171 91 -175 0 -5 -20 -42 -44 -82
l-43 -74 -20 34 c-45 75 -173 316 -173 326 0 20 83 153 90 145 5 -4 49 -83 99
-174z m-104 -169 c52 -96 95 -175 95 -176 0 -2 -289 164 -298 172 -2 1 20 43
49 93 29 50 54 89 56 88 1 -2 45 -81 98 -177z m-524 -25 c107 -60 150 -80 157
-72 5 7 21 35 36 64 l26 52 114 -67 c63 -37 113 -69 111 -72 -86 -159 -480
-830 -488 -830 -6 0 -41 30 -77 67 -201 208 -244 551 -113 905 l25 67 31 -15
c16 -9 97 -54 178 -99z m597 -177 c45 -27 82 -51 82 -54 0 -2 -12 -28 -26 -56
-21 -42 -23 -53 -12 -63 7 -7 78 -61 158 -120 80 -60 147 -110 149 -111 17
-14 -192 -228 -284 -291 -88 -59 -174 -100 -262 -124 -127 -35 -314 -17 -401
39 -9 6 18 60 100 203 62 107 172 296 243 421 120 208 132 225 150 215 11 -6
57 -32 103 -59z m-656 -777 c24 -16 60 -37 81 -47 44 -21 43 -31 -3 -56 -74
-39 -121 -12 -128 75 -2 32 -2 57 1 57 3 0 25 -13 49 -29z"/>
</g>
</svg>
